<?xml version="1.0" encoding="utf-8" ?>
<svg xmlns="http://www.w3.org/2000/svg" xmlns:xlink="http://www.w3.org/1999/xlink" width="24" height="24" viewBox="0 0 24 24">
	<path transform="matrix(1 0 0 1 3.48047 2.19141)" d="M8.51953 3.69141C8.01172 3.69141 7.57617 3.51172 7.21289 3.15234C6.85352 2.78906 6.67383 2.35352 6.67383 1.8457C6.67383 1.33789 6.85352 0.904297 7.21289 0.544922C7.57617 0.181641 8.01172 0 8.51953 0C9.02734 0 9.46094 0.181641 9.82031 0.544922C10.1836 0.904297 10.3652 1.33789 10.3652 1.8457C10.3652 2.35352 10.1836 2.78906 9.82031 3.15234C9.46094 3.51172 9.02734 3.69141 8.51953 3.69141ZM5.92383 19.5586L5.92383 6.52148L0 6.52148L0 5.02148L17.0391 5.02148L17.0391 6.52148L11.1152 6.52148L11.1152 19.5586L9.61523 19.5586L9.61523 13.8105L7.42383 13.8105L7.42383 19.5586L5.92383 19.5586Z" fill-rule="nonzero" fill="rgb(25, 50, 56)"/>
</svg>
