<?xml version="1.0" encoding="utf-8" ?>
<svg xmlns="http://www.w3.org/2000/svg" xmlns:xlink="http://www.w3.org/1999/xlink" width="24" height="24" viewBox="0 0 24 24">
	<path transform="matrix(1 0 0 1 2.34961 2.34961)" d="M11.1445 19.3008L9.99609 18.1523L13.5469 14.6016L4.69922 5.75391L1.14844 9.30469L0 8.15625L1.41797 6.70312L0.269531 5.55469L2.36719 3.45703L0.966797 2.02148L2.02148 0.966797L3.45703 2.36719L5.55469 0.269531L6.70312 1.41797L8.15625 0L9.30469 1.14844L5.75391 4.69922L10.1777 9.12305L14.6016 13.5469L18.1523 9.99609L19.3008 11.1445L17.8828 12.5977L19.0312 13.7461L16.9336 15.8438L18.334 17.2793L17.2793 18.334L15.8438 16.9336L13.7461 19.0312L12.5977 17.8828L11.1445 19.3008Z" fill-rule="nonzero" fill="rgb(25, 50, 56)"/>
</svg>
