<?xml version="1.0" encoding="utf-8" ?>
<svg xmlns="http://www.w3.org/2000/svg" xmlns:xlink="http://www.w3.org/1999/xlink" width="20" height="20" viewBox="0 0 20 20">
	<path transform="matrix(1 0 0 1 4.58496 2.91504)" d="M0 13.96L0 1.50879C0 1.08887 0.144857 0.732422 0.43457 0.439453C0.727539 0.146484 1.08398 0 1.50391 0L9.32617 0C9.74609 0 10.1009 0.146484 10.3906 0.439453C10.6836 0.732422 10.8301 1.08887 10.8301 1.50879L10.8301 13.96L5.41504 11.6357L0 13.96ZM1.25 12.041L5.41504 10.2539L9.58008 12.041L9.58008 1.50879C9.58008 1.44368 9.55404 1.38509 9.50195 1.33301C9.44987 1.27767 9.39128 1.25 9.32617 1.25L1.50391 1.25C1.4388 1.25 1.38021 1.27767 1.32812 1.33301C1.27604 1.38509 1.25 1.44368 1.25 1.50879L1.25 12.041ZM1.25 1.25L1.32812 1.25L1.50391 1.25L9.32617 1.25L9.50195 1.25L9.58008 1.25L5.41504 1.25L1.25 1.25Z" fill-rule="nonzero" fill="rgb(126, 138, 140)"/>
</svg>
